<svg width="33" height="33" viewBox="0 0 33 33" fill="none" xmlns="http://www.w3.org/2000/svg">
<g clip-path="url(#clip0_146_1007)">
<path d="M32.4808 16.7671C32.6357 21.0785 31.0674 24.9742 28.3844 27.808C25.6471 30.7025 21.7471 32.492 17.3376 32.492C12.9282 32.492 8.92122 30.7377 5.88843 27.8911L6.97761 27.0036L10.785 23.8979L10.7914 23.9043C12.414 25.9145 14.6147 27.4433 17.1125 28.2206C18.2991 28.59 19.5527 28.7883 20.8416 28.7883C23.2834 28.7883 25.5241 28.0734 27.3703 26.8436C30.5819 24.7007 32.6118 20.9986 32.4808 16.7671Z" fill="url(#paint0_linear_146_1007)"/>
<path d="M27.1116 5.10896L26.0224 5.99651L22.215 9.10216L22.2087 9.09576C20.5861 7.08557 18.3853 5.55673 15.8876 4.77952C14.7009 4.41011 13.4473 4.2118 12.1585 4.2118C9.71657 4.2118 7.47591 4.92665 5.62973 6.15643C2.41807 8.29936 0.386628 12.0015 0.519183 16.233C0.362673 11.9215 1.93257 8.0259 4.61561 5.19211C7.35294 2.29756 11.2513 0.508057 15.6624 0.508057C20.0734 0.508057 24.0788 2.26238 27.1116 5.10896Z" fill="url(#paint1_linear_146_1007)"/>
<path d="M21.7966 10.9028L18.0962 16.5C18.1186 16.9414 17.9621 17.3412 17.6874 17.6307C17.4127 17.9201 17.023 18.0992 16.5822 18.0992C16.1414 18.0992 15.7326 17.9201 15.4292 17.6307C15.1257 17.3412 14.9245 16.9414 14.9021 16.5C14.8798 16.0587 15.0363 15.6589 15.311 15.3694C15.5857 15.0799 15.9754 14.9008 16.4161 14.9008L21.7966 10.9028Z" fill="url(#paint2_linear_146_1007)"/>
<path d="M32.4697 16.5C32.4745 16.5896 32.4777 16.6776 32.4809 16.7671C32.6134 20.9986 30.582 24.7007 27.3703 26.8437C25.5225 28.0735 23.2835 28.7883 20.8416 28.7883C19.5528 28.7883 18.2991 28.59 17.1125 28.2206C14.6147 27.4434 12.4124 25.9145 10.7914 23.9043C12.5194 25.2733 14.6866 26.0952 17.0023 26.0952C19.318 26.0952 21.399 25.2733 22.9832 23.9043V23.9011C23.21 23.706 23.424 23.5013 23.6284 23.2855C25.2702 21.5487 26.2172 19.1499 26.0799 16.5C25.9585 14.178 25.0227 12.0495 23.5661 10.3895L26.5319 6.31474L27.2857 5.27686C30.2801 8.16341 32.2381 12.1262 32.4681 16.5H32.4697Z" fill="url(#paint3_linear_146_1007)"/>
<path d="M22.2087 9.09563C20.4807 7.72671 18.3135 6.90472 15.9978 6.90472C13.682 6.90472 11.6011 7.72671 10.0168 9.09563C9.79004 9.29233 9.57444 9.49863 9.37002 9.71452C7.72825 11.4512 6.7812 13.8501 6.91855 16.4999C7.03993 18.822 7.9758 20.9505 9.4323 22.6105L6.46659 26.6852L5.71278 27.7231C2.71832 24.8366 0.758747 20.8737 0.528772 16.4999C0.523981 16.4104 0.520787 16.3224 0.517593 16.2329C0.385038 12.0014 2.41648 8.29923 5.62814 6.1563C7.47592 4.92651 9.71498 4.21167 12.1569 4.21167C13.4457 4.21167 14.6978 4.40997 15.886 4.77939C18.3837 5.5566 20.5861 7.08543 22.2071 9.09563H22.2087Z" fill="url(#paint4_linear_146_1007)"/>
</g>
<defs>
<linearGradient id="paint0_linear_146_1007" x1="30.27" y1="23.5884" x2="14.5597" y2="13.3458" gradientUnits="userSpaceOnUse">
<stop stop-color="#6E6BE2"/>
<stop offset="1" stop-color="#A1AEFF"/>
</linearGradient>
<linearGradient id="paint1_linear_146_1007" x1="24.8903" y1="7.32932" x2="9.17985" y2="-2.91337" gradientUnits="userSpaceOnUse">
<stop stop-color="#A1AEFF"/>
<stop offset="1" stop-color="#6E6BE2"/>
</linearGradient>
<linearGradient id="paint2_linear_146_1007" x1="21.6692" y1="11.3308" x2="14.2343" y2="13.5965" gradientUnits="userSpaceOnUse">
<stop stop-color="#A1AEFF"/>
<stop offset="1" stop-color="#6E6BE2"/>
</linearGradient>
<linearGradient id="paint3_linear_146_1007" x1="16.243" y1="27.9066" x2="30.6173" y2="9.40611" gradientUnits="userSpaceOnUse">
<stop stop-color="#7D3EBB"/>
<stop offset="1" stop-color="#998AF9"/>
</linearGradient>
<linearGradient id="paint4_linear_146_1007" x1="5.96346" y1="26.8414" x2="20.3376" y2="8.3399" gradientUnits="userSpaceOnUse">
<stop stop-color="#998AF9"/>
<stop offset="1" stop-color="#7D3EBB"/>
</linearGradient>
<clipPath id="clip0_146_1007">
<rect width="32" height="32" fill="white" transform="translate(0.5 0.5)"/>
</clipPath>
</defs>
</svg>
